# xmcd
#
# Track frame offsets:
#	150
#	14405
#	29527
#	45006
#	59818
#	77550
#	92957
#	108479
#	124356
#	139003
#
# Disc length: 2093 seconds
#
# Revision: 0
# Processed by: cddbd v1.4PL0 Copyright (c) Steve Scherf et al.
# Submitted via: EasyCDDAExtractor 4.5.0.2
#
DISCID=85082b0a
DTITLE=Chris Ward - One Step Beyond
DYEAR=1996
DGENRE=Country
TTITLE0=One Step Beyond
TTITLE1=Mary Ann Is A Pistol
TTITLE2=Fall Reaching
TTITLE3=When You Get To Be You
TTITLE4=Love'll Do That
TTITLE5=Love Me To Death
TTITLE6=It's All Started With A Lie
TTITLE7=Somewhere Between Goodbye And Gone
TTITLE8=Back To Earth
TTITLE9=Only God Could Stop Me Lovin' You
EXTD=
EXTT0=
EXTT1=
EXTT2=
EXTT3=
EXTT4=
EXTT5=
EXTT6=
EXTT7=
EXTT8=
EXTT9=
PLAYORDER=
